<svg xmlns="http://www.w3.org/2000/svg" preserveAspectRatio="xMidYMid" width="20.62" height="19.719" viewBox="0 0 20.62 19.719"><defs><style>.cls-1{fill:#fff;fill-rule:evenodd}</style></defs><path d="M20.576 4.43l-1.204 8.91c-.184.923-1.024 1.636-1.882 1.636H6.61c-.86 0-1.697-.713-1.88-1.635L3.263 3.055c-.146-.732-.157-.977-.137-1.055H1a1 1 0 0 1 0-2h4a1 1 0 0 1 1 1 .99.99 0 0 1-.898.98h13.965c1.105 0 1.773 1.13 1.51 2.45zM5.418 3.945l1.313 9h10.673c-.005 0-.004-.002.004-.013l1.186-8.788s.028-.2.03-.2H5.42zm1.827 12.01a1.874 1.874 0 1 1 .002 3.748 1.874 1.874 0 0 1-.002-3.748zm9 0a1.874 1.874 0 1 1 0 3.748 1.874 1.874 0 0 1 0-3.748z" class="cls-1"/></svg>