<svg xmlns="http://www.w3.org/2000/svg" width="20" height="20" viewBox="0 0 20 20"><defs><style>.cls-1{fill:#fff;fill-rule:evenodd}</style></defs><path id="Чербокс_вкл._" data-name="Чербокс вкл." class="cls-1" d="M4.146.014h11.708a4.16 4.16 0 0 1 4.16 4.16v11.65a4.16 4.16 0 0 1-4.16 4.162H4.146a4.16 4.16 0 0 1-4.16-4.16V4.173a4.16 4.16 0 0 1 4.16-4.16zM4 1h12a3 3 0 0 1 3 3v12a3 3 0 0 1-3 3H4a3 3 0 0 1-3-3V4a3 3 0 0 1 3-3zm12.37 5.955l-5.93 5.93-1.766 1.767-1.765-1.766-3.07-3.07L5.603 8.05l3.07 3.07L14.6 5.19z"/></svg>