<svg xmlns="http://www.w3.org/2000/svg" width="47.375" height="47.38" viewBox="0 0 47.375 47.38"><defs><style>.cls-1{fill:#323232;fill-rule:evenodd}</style></defs><path id="Мороженко" class="cls-1" d="M29.64 9.64a8.575 8.575 0 0 0-14.638 6.06v14.68a.808.808 0 0 0 .81.81h15.532a.808.808 0 0 0 .81-.81V15.7a8.512 8.512 0 0 0-2.513-6.06zm.895 19.93H16.62V18.68c.045.05.092.1.143.16a2.62 2.62 0 0 0 4.31 0 1.185 1.185 0 0 1 .945-.6 1 1 0 0 1 .31.43 10.746 10.746 0 0 1 .487 1.22 9.606 9.606 0 0 0 .7 1.65 1.753 1.753 0 0 0 3.237 0 9.614 9.614 0 0 0 .7-1.65 10.67 10.67 0 0 1 .488-1.22 1 1 0 0 1 .31-.43 1.186 1.186 0 0 1 .945.6 3.205 3.205 0 0 0 1.346 1v9.73zm-9.007 8.58a2.05 2.05 0 1 0 4.1 0v-6.16h-4.1v6.16zm2.16-38.16a23.7 23.7 0 1 1-23.7 23.7 23.7 23.7 0 0 1 23.7-23.7zm0 45.4a21.7 21.7 0 1 1 21.7-21.7 21.722 21.722 0 0 1-21.7 21.7z"/></svg>