<svg xmlns="http://www.w3.org/2000/svg" preserveAspectRatio="xMidYMid" width="16.687" height="16.688" viewBox="0 0 16.687 16.688"><defs><style>.cls-1{fill:#fff;fill-rule:evenodd}</style></defs><path d="M11.936 10.497h-.758l-.264-.26a6.166 6.166 0 0 0 1.497-4.03c0-3.425-2.778-6.2-6.205-6.2A6.202 6.202 0 0 0 0 6.207a6.202 6.202 0 0 0 10.24 4.703l.262.262v.755l4.773 4.76 1.423-1.422-4.762-4.768zm-5.73 0a4.294 4.294 0 0 1-4.298-4.29 4.294 4.294 0 0 1 4.297-4.293A4.293 4.293 0 0 1 10.5 6.206c0 2.37-1.922 4.29-4.295 4.29z" class="cls-1"/></svg>