<svg xmlns="http://www.w3.org/2000/svg" width="31.374" height="31.4" viewBox="0 0 31.374 31.4"><defs><style>.cls-1{fill:#fff;fill-rule:evenodd;opacity:.8}</style></defs><path id="Инста" class="cls-1" d="M15.677.01A15.69 15.69 0 1 1-.015 15.7 15.688 15.688 0 0 1 15.677.01zm6.27 23.61a1.745 1.745 0 0 0 1.746-1.75V9.56a1.743 1.743 0 0 0-1.745-1.74H9.62a1.743 1.743 0 0 0-1.744 1.74v12.31a1.745 1.745 0 0 0 1.745 1.75h12.33zm-1.374-9.1a4.92 4.92 0 1 1-9.53 0h-1.38v6.78a.61.61 0 0 0 .612.61H21.34a.61.61 0 0 0 .612-.61v-6.78h-1.38zm-4.76-1.61a2.848 2.848 0 1 1 0 5.68 2.84 2.84 0 0 1 0-5.68zm3.7-3.31h1.864a.608.608 0 0 1 .61.61v1.86a.608.608 0 0 1-.61.61h-1.865a.61.61 0 0 1-.61-.61v-1.86a.61.61 0 0 1 .61-.61z"/></svg>