<svg xmlns="http://www.w3.org/2000/svg" width="20" height="20" viewBox="0 0 20 20">
  <defs>
    <style>
      .cls-1 {
        fill: #fff;
        fill-rule: evenodd;
      }
    </style>
  </defs>
  <path id="Чербокс_выкл." data-name="Чербокс выкл." class="cls-1" d="M516.146,290.014h11.708a4.16,4.16,0,0,1,4.16,4.16v11.651a4.161,4.161,0,0,1-4.16,4.161H516.146a4.161,4.161,0,0,1-4.161-4.161V294.174A4.16,4.16,0,0,1,516.146,290.014ZM516,291h12a3,3,0,0,1,3,3v12a3,3,0,0,1-3,3H516a3,3,0,0,1-3-3V294A3,3,0,0,1,516,291Z" transform="translate(-512 -290)"/>
</svg>
