<svg xmlns="http://www.w3.org/2000/svg" width="31.375" height="31.4" viewBox="0 0 31.375 31.4"><defs><style>.cls-1{fill:#fff;fill-rule:evenodd;opacity:.8}</style></defs><path id="Твитер" class="cls-1" d="M15.677.01A15.69 15.69 0 1 1-.015 15.7 15.688 15.688 0 0 1 15.677.01zm9.138 10.81a7.33 7.33 0 0 1-2.092.57 3.663 3.663 0 0 0 1.6-2.02 7.4 7.4 0 0 1-2.313.89 3.645 3.645 0 0 0-6.207 3.32 10.316 10.316 0 0 1-7.507-3.81 3.655 3.655 0 0 0 1.127 4.87 3.68 3.68 0 0 1-1.65-.46v.05a3.65 3.65 0 0 0 2.922 3.57 3.79 3.79 0 0 1-.96.13 3.86 3.86 0 0 1-.685-.07 3.643 3.643 0 0 0 3.4 2.53 7.29 7.29 0 0 1-4.524 1.56 8.29 8.29 0 0 1-.87-.05 10.354 10.354 0 0 0 15.947-8.73c0-.16 0-.31-.01-.47a7.33 7.33 0 0 0 1.822-1.88z"/></svg>