<svg xmlns="http://www.w3.org/2000/svg" preserveAspectRatio="xMidYMid" width="153.094" height="63.25" viewBox="0 0 153.094 63.25"><defs><style>.cls-1{fill:#fff;fill-rule:evenodd}</style></defs><path d="M153.077 52.162c-.45 6.77-5.747 11.1-12.885 11.1-6.872 0-10.002-3.162-10.002-6.1 0-1.62 1.247-2.834 2.48-3.194.18-.04.29-.055.385-.055.284 0 .445.13.53.238.21.264.142.568.053.952-.025.108-.054.233-.083.378-.18 1.02-.18 2.514.873 3.77 1.16 1.388 3.36 2.12 6.357 2.12 4.543 0 9.617-3.596 9.894-9.406.202-4.772-2.148-8.118-6.056-8.758.333.84.536 1.767.605 2.767.17 2.586-.487 4.848-1.85 6.372-1.104 1.234-2.61 1.93-4.354 2.008-1.47.073-2.66-.424-3.51-1.395-.944-1.078-1.354-2.692-1.123-4.43.436-3.403 2.66-6.05 5.887-7.092-1.645-1.313-4.024-2.08-6.81-2.184-3.242-.13-6.064.543-8.433 1.97-1.206 7.44-3.688 16.015-6.777 16.015-.638 0-1.234-.395-1.677-1.114-1.042-1.693-1.26-5.305.722-9.24 1.48-2.913 3.18-5.055 5.19-6.54.258-2.357.45-4.803.568-7.296-.987 1.26-2.156 1.97-3.352 2.005-1.003 1.397-2.294 2.164-3.655 2.164-1.18 0-2.27-.485-3.153-1.404-1.317-1.372-1.987-3.498-1.886-5.987.168-4.01 1.81-7.016 4.39-8.04.528-.216 1.05-.062 1.25.342.565-.654 1.266-1.106 2.11-1.26.733-.13 1.42.167 1.987.82 1.185 1.358 1.643 3.973 1.227 6.996-.24 1.643-.612 3.067-1.113 4.254.934-.687 1.84-2.452 2.34-4.698.015-1.497.01-2.898-.017-4.282-.03-1.054.313-1.636.606-1.94.297-.304.69-.48 1.08-.48 1.085 0 1.138.627 1.138 1.733 0 .442.007.836.015 1.314l.01.77c1.205-2.613 2.747-4.056 4.394-4.056.735 0 1.407.31 1.943.867 1.105 1.153 1.618 3.44 1.485 6.564-.28 5.663-3.5 8.247-6.567 8.247-.577 0-1.117-.003-1.635-.21-.057.678-.126 1.555-.21 2.223 2.473-1.056 5.34-1.057 8.836-.83 4.064.246 7.084 2.4 8.977 4.4h.236c2.774 0 5.26.224 7.002 2.08 1.858 1.978 2.772 4.392 2.575 7.522zm-33.224-5.17c-1.78 3.562-1.704 6.022-1.22 6.807.09.142.184.22.28.23.585-.283 2.044-3.615 3.082-10.25a15.384 15.384 0 0 0-2.142 3.213zm-4.89-17.48c-.192-1.843-.007-3.812.58-5.41-.738 1.07-1.226 2.96-1.32 5.254-.1 2.02.382 3.792 1.286 4.74.256.27.67.593 1.182.593.28 0 .57-.09.858-.256-1.382-.896-2.366-2.73-2.586-4.92zm4.22-5.27c-.054-.056-.132-.125-.203-.125-.85.245-1.915 2.415-1.79 4.94.062 1.41.556 3.194 1.727 3.914.432-.788.888-2.085 1.008-4.13.157-2.448-.274-4.1-.742-4.597zm8.07 10.7c1.83 0 3.07-2.076 3.32-5.556.21-3.24-.2-4.914-.658-5.4-.123-.132-.21-.132-.244-.132-.64 0-2.694 2.878-3.747 9.672l-.064 1.027c.345.266.794.39 1.393.39zm15.62 11.602c-.074-1.258-.414-2.38-1.012-3.342-2.665.507-4.55 2.4-4.95 5-.217 1.305-.01 2.413.584 3.127.45.54 1.088.82 1.9.836l.107.002c.77 0 1.473-.316 2.038-.916.965-1.024 1.453-2.74 1.335-4.708zm-31.248-8.428c-.046.22-.27.773-1.482.623-2.446-.264-3.577-3.233-3.452-9.076.03-1.42.153-2.6.25-3.55.092-.88.194-1.88.06-2.078-.726.038-3.545 3.81-4.575 10.633-.05 1.73-1.027 2.207-1.597 2.207-1.037 0-1.22-.442-1.22-1.688 0-1.458.015-1.995.045-3.077.02-.715.047-1.67.08-3.297.075-2.74.25-5.39.522-7.89-1.378.233-2.875.248-4.374.04-4.263-.57-5.69-3.31-5.605-5.69.104-1.51 1.426-2.372 2.288-2.587.175-.04.29-.054.39-.054.308 0 .47.16.54.254.205.284.107.582-.04 1.033l-.082.25c-.183.69-.163 1.47.065 2.18.123.274.387.66.833.66.31 0 .668-.184.984-.504.67-.68 1.062-1.828 1.047-3.075-.042-2.73-1.607-4.333-4.41-4.513a8.127 8.127 0 0 0-.54-.017c-2.527 0-5.25 1.275-5.636 4.125-.488 3.726 2.647 5.625 5.965 7.634l.374.227c3.42 2.112 7.043 4.756 6.772 9.45-.306 5.01-4.763 8.788-10.37 8.788-.694 0-1.398-.06-2.09-.18-6.885-1.187-9.05-6.53-8.814-10.744.106-1.516.587-3.64 2.284-5.177.597-.545 2.43-1.143 3.02-1.228.724-.106.91.206.987.38.187.43-.133.86-.507 1.26-1.965 1.923-2.827 3.435-3.093 5.41-.24 1.89.27 3.718 1.432 5.144 1.21 1.486 3.055 2.396 5.196 2.564 4.21.326 8.16-2.198 8.543-5.332.472-3.82-2.457-6.13-5.763-8.348l-.695-.457c-3.46-2.272-7.037-4.623-6.652-8.657.377-4.587 5.078-6.99 9.528-6.99.123 0 .244 0 .363.005 2.28.085 4.1.81 5.263 2.1 1.042 1.157 1.532 2.713 1.413 4.498-.12 2.368-1.27 4.465-2.915 5.476.28.1.578.18.89.235 1.21.227 2.46.2 3.616-.077 1.205-8.835 3.718-14.523 6.434-14.523.62 0 1.21.408 1.662 1.147 1.173 1.913 1.408 5.72-.41 9.294-1.2 2.397-2.92 4.134-5.12 5.162a62.813 62.813 0 0 0-.46 6.927c1.437-3.125 3.5-5.732 5.643-5.732.51 0 .928.172 1.242.51.892.965.773 3.11.485 6.816-.534 6.513.196 8.186.902 8.443.86.382.818.91.785 1.063zm-5.814-23.384c1.458-2.914 1.274-5.64.817-6.674-.134-.304-.258-.4-.292-.408-.545.246-2.014 3.81-2.99 10.085 1.01-.738 1.836-1.745 2.466-3.003zM76.766 29.025c-2.93 21.904-5.728 24.438-7.58 24.438-.623 0-1.175-.315-1.595-.91-1.087-1.545-1.112-4.672-.062-7.607a29.284 29.284 0 0 1 5.63-9.628l.03-.278c-.87 1.337-1.832 2.05-2.814 2.05-.987 0-2.657-.495-3.58-3.54-1.5 2.618-3.475 4.09-5.54 4.09-2.077 0-3.905-1.293-4.914-3.39-.8 1.928-1.91 3.773-3.23 3.773-1.08 0-1.912-1.273-2.296-3.415-.95 1.59-2.08 2.503-3.258 2.606a2.066 2.066 0 0 1-.17.007c-1.236 0-2.666-1.067-3.394-3.126-1.215 2.203-2.594 3.44-3.876 3.44-1.685 0-3.32-2.003-4.28-5.128-1.075 2.608-2.734 5.108-4.575 5.108-.702 0-1.423-.37-2.084-1.07-1.52-1.612-3.174-5.625-2.826-11.634.517-8.31 3.554-19.898 7.328-19.898.286 0 .7.093 1.057.54 1.293 1.628.768 7.125-.018 10.508-1.055 4.308-3.35 9.392-5.112 12.273.283 4.745 1.406 6.88 2.122 6.88.767 0 2.432-2.666 3.316-6.852a27.293 27.293 0 0 1-.058-4.036c.542-8.715 3.722-20.868 7.67-20.868.295 0 .723.096 1.09.56 1.352 1.7.8 7.46-.024 11.008-1.106 4.522-3.518 9.862-5.367 12.886.297 5.003 1.49 7.255 2.253 7.255.576 0 1.923-1.64 2.982-5.16.655-6.057 4.193-8.196 7.02-8.196 1.535 0 2.402.576 2.86 1.06.583.62.874 1.47.82 2.396-.13 1.005-1.65 1.89-2.4 2.03-.54.117-.805-.1-.896-.232-.222-.32-.095-.662.116-1.23l.05-.134c.278-.9.306-1.526.076-1.838-.162-.22-.5-.332-1.007-.332-1.654 0-3.04 2.295-3.45 5.71-.313 2.544.262 4.513.93 5.268.158.178.32.28.44.28.814 0 1.926-1.62 2.478-4.72l.025-.316c.02-.275.04-.53.102-.873.188-.976 1.313-1.418 2.28-1.418.42 0 .702.092.864.277l.15.172-.015.278c-.984 5.17-.67 7.093-.432 7.49.287-.26 1.015-1.47 1.9-4.94a13.357 13.357 0 0 1-.004-.94c.253-5.043 2.892-8.84 6.142-8.84.91 0 1.66.31 2.228.92 1.12 1.21 1.07 3.13 1.028 3.69-.132.998-1.654 1.8-2.4 1.938-.612.135-.815-.086-.904-.214-.204-.296-.088-.605.088-1.072l.085-.226c.38-1.07.557-2.458.154-3.03-.086-.122-.25-.285-.66-.285-1.27 0-2.39 2.903-2.553 6.607-.073 2.18.482 4.1 1.486 5.14.498.514 1.088.786 1.705.786 2.397 0 3.726-3.08 4.318-4.984-.144-1.94-.08-4.237.19-6.828.13-1.133 1.578-1.553 2.46-1.553.378 0 .624.08.775.254l.15.173-.017.27c-.842 6.683-.728 10.69.34 11.9.206.233.44.342.734.342.822 0 2.37-2.897 3.025-8.13.092-1.388.22-2.69.34-3.453.128-1.096 1.558-1.512 2.43-1.512.406 0 .668.092.822.288l.15.192-.045.296c.005 0-.337 3.473-.797 6.655zm-6.982 16.05c-.983 2.646-.834 4.304-.37 4.974.123.174.242.242.312.25.563-.228 1.79-3.455 2.905-11.134a35.676 35.676 0 0 0-2.847 5.91zM32.43 16.066c.98-3.774.93-6.968.64-7.847-1.034 1.39-3.09 9.68-3.45 15.846 1.15-2.63 2.255-5.748 2.81-7.998zm8.938-1.017c1.052-4.048.977-7.435.656-8.3-1.088 1.36-3.303 10.257-3.662 16.827 1.226-2.79 2.415-6.13 3.006-8.527zm-31.23 2.625a25.24 25.24 0 0 0-1.078 4.794c-.58 4.72.25 8.865 2.215 11.088 1.08 1.222 2.454 1.84 4.082 1.842.092 0 .184-.002.277-.007 4.15-.203 5.55-4.45 6.016-6.964l.132-2.548c.078-2.123 1.386-2.288 1.785-2.288.317 0 1.22.134 1.22.727C24.33 30.905 23.67 36.034 22.763 40c4.964.347 11.007 1.306 16.306 2.208 4.402.743 9.413 1.5 13.18 1.5 3.222 0 5.158-.546 5.754-1.622.12-.204.192-.358.244-.473.104-.223.26-.562.663-.562.247 0 .434.14.67.32.848.584 1.428 1.598 1.466 2.57.023.595-.137 1.458-1.03 2.182-.893.747-2.355 1.113-4.465 1.113-3.668 0-8.713-1.074-14.054-2.21-.98-.21-1.964-.42-2.94-.62-6.47-1.323-11.96-2.098-16.324-2.307-1.58 5.356-3.827 8.125-7.048 8.7-.32.054-.644.08-.968.08-2.1 0-4.15-1.085-5.22-2.765-.86-1.355-.96-2.905-.28-4.364 1.184-2.63 4.5-3.857 10.43-3.857.347 0 .7.004 1.063.012.326-1.413.597-2.994.822-4.79-1.558 1.618-3.54 2.52-5.82 2.626l-.3.006c-2.537 0-4.752-.975-6.41-2.82-2.417-2.696-3.494-7.092-2.955-12.06.217-1.998.628-3.846 1.224-5.507-2.487-.592-4.53-1.868-5.664-3.55C.102 12.32-.207 10.565.188 8.59 1.5 2.025 9.924-.013 12.844-.013c.518 0 .895.056 1.15.17.38.18 1.36.647 1.196 1.368-.093.413-.528.66-1.163.66-.312 0-.642-.062-.93-.17-.043-.018-.213-.07-.625-.07-2.142 0-8.658 1.6-9.576 6.506-.635 3.35 1.87 5.823 4.78 6.646 2.574-5.46 7.165-9.343 11.79-9.94 2.232-.3 4.05.296 4.95 1.636.715 1.068.786 2.507.194 3.95-1.536 3.77-7.85 6.777-14.472 6.93zm2.164 26.41c-.634 1.046-.72 2.145-.23 3.01.456.813 1.327 1.297 2.33 1.297.36 0 .727-.064 1.09-.19 1.72-.617 3.122-2.672 4.163-6.114-5.088.084-6.812 1.12-7.353 1.998zM21.157 8.13c-.33-.512-.997-.618-1.497-.618a4.74 4.74 0 0 0-.836.08c-2.767.528-5.836 3.617-7.79 7.786 3.953-.313 8.694-2.295 10.003-5.04.4-.896.446-1.706.12-2.21z" class="cls-1"/></svg>